<svg height="512" viewBox="0 0 512 512" width="512" xmlns:xlink="http://www.w3.org/1999/xlink" xmlns="http://www.w3.org/2000/svg">
  <use xlink:href="#printer" transform="translate(140, 140) scale(3)" />

  <defs>
    <g id="printer">
      <path
        d="m63.683 57.968h-9.413v-2h9.413a3.321 3.321 0 0 0 3.317-3.317v-23.334a3.321 3.321 0 0 0 -3.317-3.317h-53.366a3.321 3.321 0 0 0 -3.317 3.317v23.334a3.321 3.321 0 0 0 3.317 3.317h9.413v2h-9.413a5.324 5.324 0 0 1 -5.317-5.317v-23.334a5.324 5.324 0 0 1 5.317-5.317h53.366a5.324 5.324 0 0 1 5.317 5.317v23.334a5.324 5.324 0 0 1 -5.317 5.317z"/>
      <path d="m53 26h-32a1 1 0 0 1 -1-1v-22a1 1 0 0 1 1-1h24v2h-23v20h30v-13h2v14a1 1 0 0 1 -1 1z"/>
      <path d="m53 12h-8a1 1 0 0 1 -1-1v-8a1 1 0 0 1 1.707-.707l8 8a1 1 0 0 1 -.707 1.707zm-7-2h4.586l-4.586-4.586z"/>
      <path d="m15 25h-2v-7a1 1 0 0 1 1-1h6.81v2h-5.81z"/>
      <path d="m61 25h-2v-6h-6v-2h7a1 1 0 0 1 1 1z"/>
      <path d="m15.413 48h43.174v2h-43.174z"/>
      <path d="m54 72h-34a1 1 0 0 1 -1-1v-22a1 1 0 0 1 1-1h34a1 1 0 0 1 1 1v22a1 1 0 0 1 -1 1zm-33-2h32v-20h-32z"/>
      <path d="m59 37a4 4 0 1 1 4-4 4 4 0 0 1 -4 4zm0-6a2 2 0 1 0 2 2 2 2 0 0 0 -2-2z"/>
      <path d="m26 53h22v2h-22z"/>
      <path d="m26 59h22v2h-22z"/>
      <path d="m26 65h22v2h-22z"/>
    </g>
  </defs>
  <g>
    <path d="M114.928,174.046l-28.8,28.8C114.48,109.944,212.776,57.617,305.677,85.969c35.405,10.805,66.498,32.506,88.851,62.012
				l25.488-19.312C350.79,37.151,220.481,19.078,128.962,88.304c-37.933,28.692-64.873,69.53-76.322,115.694l-30.016-29.952
				L0,196.654l68.8,68.8l68.8-68.8L114.928,174.046z"/>

    <path d="M439.68,242.702l-68.8,68.8l22.624,22.624l29.136-29.12c-28.103,93.051-126.317,145.702-219.368,117.599
				c-37.011-11.178-69.311-34.231-91.912-65.599l-25.968,18.688c32.093,44.868,80.787,75.048,135.248,83.824
				c11.162,1.812,22.452,2.727,33.76,2.736c95.518-0.045,178.669-65.284,201.44-158.048l29.952,29.92l22.688-22.624L439.68,242.702z
				 M438.88,288.798l0.816-0.816l1.184,1.2L438.88,288.798z"/>
  </g>
</svg>
